<mxfile host="app.diagrams.net" agent="Mozilla/5.0 (X11; Linux x86_64) AppleWebKit/537.36 (KHTML, like Gecko) Chrome/136.0.0.0 Safari/537.36" version="27.1.6">
  <diagram name="Page-1" id="zqTSpCqKBMFAQrLieow6">
    <mxGraphModel dx="1587" dy="918" grid="1" gridSize="10" guides="1" tooltips="1" connect="1" arrows="1" fold="1" page="1" pageScale="1" pageWidth="827" pageHeight="1169" math="0" shadow="0">
      <root>
        <mxCell id="0" />
        <mxCell id="1" parent="0" />
        <mxCell id="SWVfE1uadsKXaRyjQvzv-2" value="" style="rounded=1;whiteSpace=wrap;html=1;fillColor=#dae8fc;strokeColor=#6c8ebf;" vertex="1" parent="1">
          <mxGeometry x="210" y="60" width="440" height="180" as="geometry" />
        </mxCell>
        <mxCell id="SWVfE1uadsKXaRyjQvzv-3" value="" style="rounded=1;whiteSpace=wrap;html=1;fillColor=#fff2cc;strokeColor=#d6b656;" vertex="1" parent="1">
          <mxGeometry x="210" y="280" width="440" height="240" as="geometry" />
        </mxCell>
        <mxCell id="SWVfE1uadsKXaRyjQvzv-4" value="AWS Connect" style="sketch=0;points=[[0,0,0],[0.25,0,0],[0.5,0,0],[0.75,0,0],[1,0,0],[0,1,0],[0.25,1,0],[0.5,1,0],[0.75,1,0],[1,1,0],[0,0.25,0],[0,0.5,0],[0,0.75,0],[1,0.25,0],[1,0.5,0],[1,0.75,0]];outlineConnect=0;fontColor=#232F3E;fillColor=#DD344C;strokeColor=#ffffff;dashed=0;verticalLabelPosition=bottom;verticalAlign=top;align=center;html=1;fontSize=12;fontStyle=0;aspect=fixed;shape=mxgraph.aws4.resourceIcon;resIcon=mxgraph.aws4.connect;" vertex="1" parent="1">
          <mxGeometry x="240" y="301" width="78" height="78" as="geometry" />
        </mxCell>
        <mxCell id="SWVfE1uadsKXaRyjQvzv-5" value="Check&lt;div&gt;Function&lt;/div&gt;" style="sketch=0;outlineConnect=0;fontColor=#232F3E;gradientColor=none;fillColor=#ED7100;strokeColor=none;dashed=0;verticalLabelPosition=bottom;verticalAlign=top;align=center;html=1;fontSize=12;fontStyle=0;aspect=fixed;pointerEvents=1;shape=mxgraph.aws4.lambda_function;" vertex="1" parent="1">
          <mxGeometry x="442" y="310" width="48" height="48" as="geometry" />
        </mxCell>
        <mxCell id="SWVfE1uadsKXaRyjQvzv-6" value="Metrics&lt;div&gt;Function&lt;/div&gt;" style="sketch=0;outlineConnect=0;fontColor=#232F3E;gradientColor=none;fillColor=#ED7100;strokeColor=none;dashed=0;verticalLabelPosition=bottom;verticalAlign=top;align=center;html=1;fontSize=12;fontStyle=0;aspect=fixed;pointerEvents=1;shape=mxgraph.aws4.lambda_function;" vertex="1" parent="1">
          <mxGeometry x="350" y="425" width="48" height="48" as="geometry" />
        </mxCell>
        <mxCell id="SWVfE1uadsKXaRyjQvzv-7" value="Connect&lt;div&gt;Function&lt;/div&gt;" style="sketch=0;outlineConnect=0;fontColor=#232F3E;gradientColor=none;fillColor=#ED7100;strokeColor=none;dashed=0;verticalLabelPosition=bottom;verticalAlign=top;align=center;html=1;fontSize=12;fontStyle=0;aspect=fixed;pointerEvents=1;shape=mxgraph.aws4.lambda_function;" vertex="1" parent="1">
          <mxGeometry x="350" y="310" width="48" height="48" as="geometry" />
        </mxCell>
        <mxCell id="SWVfE1uadsKXaRyjQvzv-8" value="Athena" style="sketch=0;points=[[0,0,0],[0.25,0,0],[0.5,0,0],[0.75,0,0],[1,0,0],[0,1,0],[0.25,1,0],[0.5,1,0],[0.75,1,0],[1,1,0],[0,0.25,0],[0,0.5,0],[0,0.75,0],[1,0.25,0],[1,0.5,0],[1,0.75,0]];outlineConnect=0;fontColor=#232F3E;fillColor=#C925D1;strokeColor=#ffffff;dashed=0;verticalLabelPosition=bottom;verticalAlign=top;align=center;html=1;fontSize=12;fontStyle=0;aspect=fixed;shape=mxgraph.aws4.resourceIcon;resIcon=mxgraph.aws4.database;" vertex="1" parent="1">
          <mxGeometry x="550" y="420" width="58" height="58" as="geometry" />
        </mxCell>
        <mxCell id="SWVfE1uadsKXaRyjQvzv-9" value="S3" style="sketch=0;points=[[0,0,0],[0.25,0,0],[0.5,0,0],[0.75,0,0],[1,0,0],[0,1,0],[0.25,1,0],[0.5,1,0],[0.75,1,0],[1,1,0],[0,0.25,0],[0,0.5,0],[0,0.75,0],[1,0.25,0],[1,0.5,0],[1,0.75,0]];outlineConnect=0;fontColor=#232F3E;fillColor=#7AA116;strokeColor=#ffffff;dashed=0;verticalLabelPosition=bottom;verticalAlign=top;align=center;html=1;fontSize=12;fontStyle=0;aspect=fixed;shape=mxgraph.aws4.resourceIcon;resIcon=mxgraph.aws4.s3;" vertex="1" parent="1">
          <mxGeometry x="437" y="420" width="58" height="58" as="geometry" />
        </mxCell>
        <mxCell id="SWVfE1uadsKXaRyjQvzv-11" value="Shared mailbox calendar" style="shape=image;imageAspect=0;aspect=fixed;verticalLabelPosition=top;verticalAlign=bottom;image=data:image/svg+xml,PHN2ZyB4bWxucz0iaHR0cDovL3d3dy53My5vcmcvMjAwMC9zdmciIGhlaWdodD0iODMuMzMzMzMzMzMzMzMzMzQiIHdpZHRoPSI4My4zMzMzMzMzMzMzMzMzNCIgdmlld0JveD0iNCA0IDQwIDQwIj48cGF0aCBkPSJNMjgsMTNoMTQuNTMzQzQzLjM0MywxMyw0NCwxMy42NTcsNDQsMTQuNDY3djE5LjA2NkM0NCwzNC4zNDMsNDMuMzQzLDM1LDQyLjUzMywzNUgyOFYxM3oiIGZpbGw9IiMxOTc2ZDIiLz48cmVjdCBmaWxsPSIjZmZmIiB5PSIxNy45NTgiIHg9IjI4IiBoZWlnaHQ9IjE1LjU0MiIgd2lkdGg9IjE0Ii8+PHBvbHlnb24gcG9pbnRzPSIyNyw0NCA0LDM5LjUgNCw4LjUgMjcsNCIgZmlsbD0iIzE5NzZkMiIvPjxwYXRoIGQ9Ik0xNS4yNSwxNi41Yy0zLjE3NiwwLTUuNzUsMy4zNTgtNS43NSw3LjVzMi41NzQsNy41LDUuNzUsNy41UzIxLDI4LjE0MiwyMSwyNCYjOTtTMTguNDI2LDE2LjUsMTUuMjUsMTYuNXogTTE1LDI4LjVjLTEuNjU3LDAtMy0yLjAxNS0zLTQuNXMxLjM0My00LjUsMy00LjVzMywyLjAxNSwzLDQuNVMxNi42NTcsMjguNSwxNSwyOC41eiIgZmlsbD0iI2ZmZiIvPjxyZWN0IGZpbGw9IiMxOTc2ZDIiIHk9IjI5LjczNyIgeD0iMjguMDQ3IiBoZWlnaHQ9IjIuOSIgd2lkdGg9IjIuNyIvPjxyZWN0IGZpbGw9IiMxOTc2ZDIiIHk9IjI5LjczNyIgeD0iMzEuNDQ4IiBoZWlnaHQ9IjIuOSIgd2lkdGg9IjIuNyIvPjxyZWN0IGZpbGw9IiMxOTc2ZDIiIHk9IjI5LjczNyIgeD0iMzQuODQ5IiBoZWlnaHQ9IjIuOSIgd2lkdGg9IjIuNyIvPjxyZWN0IGZpbGw9IiMxOTc2ZDIiIHk9IjI2LjE1OSIgeD0iMjguMDQ3IiBoZWlnaHQ9IjIuOSIgd2lkdGg9IjIuNyIvPjxyZWN0IGZpbGw9IiMxOTc2ZDIiIHk9IjI2LjE1OSIgeD0iMzEuNDQ4IiBoZWlnaHQ9IjIuOSIgd2lkdGg9IjIuNyIvPjxyZWN0IGZpbGw9IiMxOTc2ZDIiIHk9IjI2LjE1OSIgeD0iMzQuODQ5IiBoZWlnaHQ9IjIuOSIgd2lkdGg9IjIuNyIvPjxyZWN0IGZpbGw9IiMxOTc2ZDIiIHk9IjI2LjE1OSIgeD0iMzguMjUiIGhlaWdodD0iMi45IiB3aWR0aD0iMi43Ii8+PHJlY3QgZmlsbD0iIzE5NzZkMiIgeT0iMjIuNzA2IiB4PSIyOC4wNDciIGhlaWdodD0iMi45IiB3aWR0aD0iMi43Ii8+PHJlY3QgZmlsbD0iIzE5NzZkMiIgeT0iMjIuNzA2IiB4PSIzMS40NDgiIGhlaWdodD0iMi45IiB3aWR0aD0iMi43Ii8+PHJlY3QgZmlsbD0iIzE5NzZkMiIgeT0iMjIuNzA2IiB4PSIzNC44NDkiIGhlaWdodD0iMi45IiB3aWR0aD0iMi43Ii8+PHJlY3QgZmlsbD0iIzE5NzZkMiIgeT0iMjIuNzA2IiB4PSIzOC4yNSIgaGVpZ2h0PSIyLjkiIHdpZHRoPSIyLjciLz48cmVjdCBmaWxsPSIjMTk3NmQyIiB5PSIxOS4xMTIiIHg9IjMxLjQ0OCIgaGVpZ2h0PSIyLjkiIHdpZHRoPSIyLjciLz48cmVjdCBmaWxsPSIjMTk3NmQyIiB5PSIxOS4xMTIiIHg9IjM0Ljg0OSIgaGVpZ2h0PSIyLjkiIHdpZHRoPSIyLjciLz48cmVjdCBmaWxsPSIjMTk3NmQyIiB5PSIxOS4xMTIiIHg9IjM4LjI1IiBoZWlnaHQ9IjIuOSIgd2lkdGg9IjIuNyIvPjwvc3ZnPg==;labelPosition=center;align=center;" vertex="1" parent="1">
          <mxGeometry x="290" y="106" width="83" height="83" as="geometry" />
        </mxCell>
        <mxCell id="SWVfE1uadsKXaRyjQvzv-12" value="Shared mailbox email" style="shape=image;imageAspect=0;aspect=fixed;verticalLabelPosition=top;verticalAlign=bottom;image=data:image/svg+xml,PHN2ZyB4bWxucz0iaHR0cDovL3d3dy53My5vcmcvMjAwMC9zdmciIGhlaWdodD0iNzUiIHdpZHRoPSI3NSIgdmlld0JveD0iNiA1LjQ2MDAwMDAzODE0Njk3MyAzNiAzNiI+PHBhdGggZD0iTTIxLDMxYzAsMS4xMDQsMC44OTYsMiwyLDJoMTdjMS4xMDQsMCwyLTAuODk2LDItMlYxNmMwLTEuMTA0LTAuODk2LTItMi0ySDIzYy0xLjEwNCwwLTIsMC44OTYtMiwyVjMxeiIgZmlsbD0iIzAzQTlGNCIvPjxwYXRoIGQ9Ik00MiwxNi45NzVWMTZjMC0wLjQyOC0wLjEzNy0wLjgyMy0wLjM2Ny0xLjE0OGwtMTEuMjY0LDYuOTMybC03LjU0Mi00LjY1NkwyMi4xMjUsMTlsOC40NTksNUw0MiwxNi45NzV6IiBmaWxsPSIjQjNFNUZDIi8+PHBhdGggZD0iTTI3IDQxLjQ2TDYgMzcuNDYgNiA5LjQ2IDI3IDUuNDZ6IiBmaWxsPSIjMDI3N0JEIi8+PHBhdGggZD0iTTIxLjIxNiwxOC4zMTFjLTEuMDk4LTEuMjc1LTIuNTQ2LTEuOTEzLTQuMzI4LTEuOTEzYy0xLjg5MiwwLTMuNDA4LDAuNjY5LTQuNTU0LDIuMDAzYy0xLjE0NCwxLjMzNy0xLjcxOSwzLjA4OC0xLjcxOSw1LjI0NmMwLDIuMDQ1LDAuNTY0LDMuNzE0LDEuNjksNC45ODZjMS4xMjYsMS4yNzMsMi41OTIsMS45MSw0LjM3OCwxLjkxYzEuODQsMCwzLjMzMS0wLjY1Miw0LjQ3NC0xLjk3NWMxLjE0My0xLjMxMywxLjcxMi0zLjA0MywxLjcxMi01LjE5OUMyMi44NjksMjEuMjgxLDIyLjMxOCwxOS41OTUsMjEuMjE2LDE4LjMxMXogTTE5LjA0OSwyNi43MzVjLTAuNTY4LDAuNzY5LTEuMzM5LDEuMTUyLTIuMzEzLDEuMTUyYy0wLjkzOSwwLTEuNjk5LTAuMzk0LTIuMjg1LTEuMTg3Yy0wLjU4MS0wLjc4NS0wLjg3LTEuODYxLTAuODctMy4yMTFjMC0xLjMzNiwwLjI4OS0yLjQxNCwwLjg3LTMuMjI1YzAuNTg2LTAuODEsMS4zNjgtMS4yMTEsMi4zNTUtMS4yMTFjMC45NjIsMCwxLjcxOCwwLjM5MywyLjI2NywxLjE3OGMwLjU1NSwwLjc5NSwwLjgzMywxLjg5NSwwLjgzMywzLjMxQzE5LjkwNywyNC45MDYsMTkuNjE4LDI1Ljk2OCwxOS4wNDksMjYuNzM1eiIgZmlsbD0iI0ZGRiIvPjwvc3ZnPg==;labelPosition=center;align=center;" vertex="1" parent="1">
          <mxGeometry x="495" y="110" width="75" height="75" as="geometry" />
        </mxCell>
        <mxCell id="SWVfE1uadsKXaRyjQvzv-13" value="" style="endArrow=classic;html=1;rounded=0;strokeWidth=2;entryX=0;entryY=0.5;entryDx=0;entryDy=0;" edge="1" parent="1" target="SWVfE1uadsKXaRyjQvzv-11">
          <mxGeometry width="50" height="50" relative="1" as="geometry">
            <mxPoint x="110" y="152" as="sourcePoint" />
            <mxPoint x="160" y="193" as="targetPoint" />
          </mxGeometry>
        </mxCell>
        <mxCell id="SWVfE1uadsKXaRyjQvzv-14" value="" style="endArrow=classic;html=1;rounded=0;strokeWidth=2;exitX=1;exitY=0.5;exitDx=0;exitDy=0;exitPerimeter=0;" edge="1" parent="1" source="SWVfE1uadsKXaRyjQvzv-8">
          <mxGeometry width="50" height="50" relative="1" as="geometry">
            <mxPoint x="710" y="311" as="sourcePoint" />
            <mxPoint x="730" y="450" as="targetPoint" />
          </mxGeometry>
        </mxCell>
        <mxCell id="SWVfE1uadsKXaRyjQvzv-15" value="" style="endArrow=classic;html=1;rounded=0;strokeWidth=2;entryX=0;entryY=0.5;entryDx=0;entryDy=0;entryPerimeter=0;" edge="1" parent="1" source="SWVfE1uadsKXaRyjQvzv-6" target="SWVfE1uadsKXaRyjQvzv-9">
          <mxGeometry width="50" height="50" relative="1" as="geometry">
            <mxPoint x="60" y="600" as="sourcePoint" />
            <mxPoint x="110" y="550" as="targetPoint" />
          </mxGeometry>
        </mxCell>
        <mxCell id="SWVfE1uadsKXaRyjQvzv-16" value="" style="endArrow=classic;html=1;rounded=0;strokeWidth=2;exitX=1;exitY=0.5;exitDx=0;exitDy=0;" edge="1" parent="1" source="SWVfE1uadsKXaRyjQvzv-12">
          <mxGeometry width="50" height="50" relative="1" as="geometry">
            <mxPoint x="690" y="140" as="sourcePoint" />
            <mxPoint x="720" y="148" as="targetPoint" />
          </mxGeometry>
        </mxCell>
        <mxCell id="SWVfE1uadsKXaRyjQvzv-18" value="" style="endArrow=classic;html=1;rounded=0;strokeWidth=2;entryX=0;entryY=0.5;entryDx=0;entryDy=0;entryPerimeter=0;exitX=1;exitY=0.5;exitDx=0;exitDy=0;exitPerimeter=0;" edge="1" parent="1" source="SWVfE1uadsKXaRyjQvzv-9" target="SWVfE1uadsKXaRyjQvzv-8">
          <mxGeometry width="50" height="50" relative="1" as="geometry">
            <mxPoint x="560" y="632.8889932885907" as="sourcePoint" />
            <mxPoint x="460" y="600.0030872483221" as="targetPoint" />
          </mxGeometry>
        </mxCell>
        <mxCell id="SWVfE1uadsKXaRyjQvzv-19" value="" style="endArrow=classic;html=1;rounded=0;strokeWidth=2;entryX=0.914;entryY=0.96;entryDx=0;entryDy=0;entryPerimeter=0;fillColor=#f8cecc;strokeColor=#b85450;" edge="1" parent="1" source="SWVfE1uadsKXaRyjQvzv-5" target="SWVfE1uadsKXaRyjQvzv-11">
          <mxGeometry width="50" height="50" relative="1" as="geometry">
            <mxPoint x="364" y="660" as="sourcePoint" />
            <mxPoint x="414" y="610" as="targetPoint" />
          </mxGeometry>
        </mxCell>
        <mxCell id="SWVfE1uadsKXaRyjQvzv-20" value="" style="endArrow=classic;html=1;rounded=0;strokeWidth=2;exitX=1;exitY=0.5;exitDx=0;exitDy=0;exitPerimeter=0;fillColor=#d5e8d4;strokeColor=#82b366;" edge="1" parent="1" source="SWVfE1uadsKXaRyjQvzv-4" target="SWVfE1uadsKXaRyjQvzv-7">
          <mxGeometry width="50" height="50" relative="1" as="geometry">
            <mxPoint x="170" y="640" as="sourcePoint" />
            <mxPoint x="220" y="585" as="targetPoint" />
          </mxGeometry>
        </mxCell>
        <mxCell id="SWVfE1uadsKXaRyjQvzv-21" value="" style="endArrow=classic;html=1;rounded=0;strokeWidth=2;entryX=0.5;entryY=1;entryDx=0;entryDy=0;fillColor=#f8cecc;strokeColor=#b85450;" edge="1" parent="1" source="SWVfE1uadsKXaRyjQvzv-5" target="SWVfE1uadsKXaRyjQvzv-12">
          <mxGeometry width="50" height="50" relative="1" as="geometry">
            <mxPoint x="480" y="270" as="sourcePoint" />
            <mxPoint x="720" y="230" as="targetPoint" />
          </mxGeometry>
        </mxCell>
        <mxCell id="SWVfE1uadsKXaRyjQvzv-22" value="" style="endArrow=classic;html=1;rounded=0;strokeWidth=2;fillColor=#d5e8d4;strokeColor=#82b366;" edge="1" parent="1" source="SWVfE1uadsKXaRyjQvzv-7" target="SWVfE1uadsKXaRyjQvzv-11">
          <mxGeometry width="50" height="50" relative="1" as="geometry">
            <mxPoint x="60" y="600" as="sourcePoint" />
            <mxPoint x="110" y="550" as="targetPoint" />
          </mxGeometry>
        </mxCell>
        <mxCell id="SWVfE1uadsKXaRyjQvzv-23" value="" style="endArrow=classic;html=1;rounded=0;strokeWidth=2;entryX=0;entryY=0.5;entryDx=0;entryDy=0;entryPerimeter=0;fillColor=#d5e8d4;strokeColor=#82b366;" edge="1" parent="1" target="SWVfE1uadsKXaRyjQvzv-4">
          <mxGeometry width="50" height="50" relative="1" as="geometry">
            <mxPoint x="100" y="340" as="sourcePoint" />
            <mxPoint x="110" y="550" as="targetPoint" />
          </mxGeometry>
        </mxCell>
        <mxCell id="SWVfE1uadsKXaRyjQvzv-24" value="" style="endArrow=classic;html=1;rounded=0;strokeWidth=2;fillColor=#d5e8d4;strokeColor=#82b366;entryX=0.4;entryY=1.013;entryDx=0;entryDy=0;entryPerimeter=0;" edge="1" parent="1" source="SWVfE1uadsKXaRyjQvzv-7" target="SWVfE1uadsKXaRyjQvzv-12">
          <mxGeometry width="50" height="50" relative="1" as="geometry">
            <mxPoint x="126" y="637" as="sourcePoint" />
            <mxPoint x="80" y="520" as="targetPoint" />
          </mxGeometry>
        </mxCell>
        <mxCell id="SWVfE1uadsKXaRyjQvzv-25" value="Lone workers" style="shape=umlActor;verticalLabelPosition=bottom;verticalAlign=top;html=1;outlineConnect=0;" vertex="1" parent="1">
          <mxGeometry x="60" y="304" width="30" height="60" as="geometry" />
        </mxCell>
        <mxCell id="SWVfE1uadsKXaRyjQvzv-26" value="&lt;div&gt;Admin staff&lt;/div&gt;" style="shape=umlActor;verticalLabelPosition=bottom;verticalAlign=top;html=1;outlineConnect=0;" vertex="1" parent="1">
          <mxGeometry x="60" y="121.5" width="30" height="60" as="geometry" />
        </mxCell>
        <mxCell id="SWVfE1uadsKXaRyjQvzv-33" value="&lt;font style=&quot;font-size: 18px;&quot;&gt;Microsoft 365&lt;/font&gt;" style="text;strokeColor=none;align=center;fillColor=none;html=1;verticalAlign=middle;whiteSpace=wrap;rounded=0;" vertex="1" parent="1">
          <mxGeometry x="318" y="20" width="195" height="30" as="geometry" />
        </mxCell>
        <mxCell id="SWVfE1uadsKXaRyjQvzv-34" value="&lt;font style=&quot;font-size: 18px;&quot;&gt;Amazon Web Services&lt;/font&gt;" style="text;strokeColor=none;align=center;fillColor=none;html=1;verticalAlign=middle;whiteSpace=wrap;rounded=0;" vertex="1" parent="1">
          <mxGeometry x="320" y="530" width="195" height="30" as="geometry" />
        </mxCell>
        <mxCell id="SWVfE1uadsKXaRyjQvzv-36" value="Calendar updates&lt;div&gt;using Outlook&lt;/div&gt;" style="text;strokeColor=none;align=center;fillColor=none;html=1;verticalAlign=middle;whiteSpace=wrap;rounded=0;" vertex="1" parent="1">
          <mxGeometry x="80" y="110" width="150" height="30" as="geometry" />
        </mxCell>
        <mxCell id="SWVfE1uadsKXaRyjQvzv-37" value="Phone calls" style="text;strokeColor=none;align=center;fillColor=none;html=1;verticalAlign=middle;whiteSpace=wrap;rounded=0;" vertex="1" parent="1">
          <mxGeometry x="80" y="310" width="150" height="30" as="geometry" />
        </mxCell>
        <mxCell id="SWVfE1uadsKXaRyjQvzv-38" value="Emergency emails" style="text;strokeColor=none;align=center;fillColor=none;html=1;verticalAlign=middle;whiteSpace=wrap;rounded=0;" vertex="1" parent="1">
          <mxGeometry x="640" y="106" width="150" height="30" as="geometry" />
        </mxCell>
        <mxCell id="SWVfE1uadsKXaRyjQvzv-39" value="Metrics export" style="text;strokeColor=none;align=center;fillColor=none;html=1;verticalAlign=middle;whiteSpace=wrap;rounded=0;" vertex="1" parent="1">
          <mxGeometry x="630" y="410" width="150" height="30" as="geometry" />
        </mxCell>
      </root>
    </mxGraphModel>
  </diagram>
</mxfile>
